<svg id="sw-js-blob-svg" viewBox="0 0 100 100" xmlns="http://www.w3.org/2000/svg" version="1.1"><defs><linearGradient id="sw-gradient" x1="0" x2="1" y1="1" y2="0"><stop id="stop1" stop-color="rgba(248, 117, 55, 1)" offset="0%"></stop><stop id="stop2" stop-color="rgba(251, 168, 31, 1)" offset="100%"></stop></linearGradient></defs><path fill="url(#sw-gradient)" d="M17.3,-31C18.7,-29.2,13.6,-17,14.4,-10.1C15.2,-3.2,22,-1.6,27.6,3.2C33.1,8,37.4,16,32.6,16.2C27.9,16.4,14.3,8.7,7.3,6.9C0.4,5.1,0.2,9.2,-3.8,15.7C-7.8,22.3,-15.6,31.4,-18.3,30.8C-20.9,30.1,-18.5,19.7,-17.7,12.9C-17,6.2,-18,3.1,-21,-1.7C-24,-6.5,-28.9,-13,-26.1,-13.7C-23.3,-14.3,-12.8,-9.1,-7.1,-8.5C-1.5,-7.9,-0.7,-11.9,3.6,-18.2C8,-24.5,15.9,-32.9,17.3,-31Z" width="100%" height="100%" transform="translate(50 50)" stroke-width="0" style="transition: all 0.3s ease 0s;"></path></svg>